<?xml version="1.0" encoding="iso-8859-1"?>
<!-- Uploaded to: SVG Repo, www.svgrepo.com, Generator: SVG Repo Mixer Tools -->
<!DOCTYPE svg PUBLIC "-//W3C//DTD SVG 1.1//EN" "http://www.w3.org/Graphics/SVG/1.1/DTD/svg11.dtd">
<svg fill="#000000" version="1.1" id="Capa_1" xmlns="http://www.w3.org/2000/svg" xmlns:xlink="http://www.w3.org/1999/xlink" 
	 width="800px" height="800px" viewBox="0 0 32.002 32.002"
	 xml:space="preserve">
<g>
	<path d="M21.924,6.104V5.486c0-0.879-0.713-1.591-1.592-1.591h-2.18c0.195-0.369,0.307-0.782,0.307-1.231
		c0-1.473-1.198-2.664-2.67-2.664c-1.473,0-2.671,1.189-2.671,2.661c0,0.45,0.112,0.866,0.308,1.235H11.67
		c-0.878,0-1.59,0.712-1.59,1.591v0.618H6.387c-0.943,0-1.707,0.764-1.707,1.707v22.482c0,0.943,0.764,1.708,1.707,1.708h19.229
		c0.943,0,1.707-0.765,1.707-1.708V7.811c0-0.943-0.765-1.707-1.707-1.707H21.924z M14.198,2.664c0-0.877,0.714-1.584,1.591-1.584
		c0.878,0,1.592,0.703,1.592,1.58c0,0.504-0.234,0.989-0.6,1.235h-1.983C14.433,3.649,14.198,3.168,14.198,2.664z M6.827,9.873
		c0-0.896,0.726-1.622,1.622-1.622h1.631c0,0.577,0.467,1.045,1.043,1.045h9.754c0.578,0,1.045-0.468,1.045-1.045h1.63
		c0.896,0,1.623,0.726,1.623,1.622v9.057h-5.183c-0.449,0-0.851,0.279-1.01,0.699l-0.162,0.43l-1.379-7.896
		c-0.089-0.516-0.537-0.843-1.06-0.843c-0.003,0-0.003,0-0.004,0c-0.522,0-0.97,0.322-1.062,0.836l-1.208,6.636l-0.364-1.784
		c-0.088-0.432-0.429-0.764-0.862-0.844c-0.432-0.08-0.872,0.117-1.107,0.488l-1.441,2.277H6.827V9.873z M8.534,29.854
		c-0.943,0-1.707-0.766-1.707-1.709v-7.067h4.099c0.369,0,0.713-0.224,0.91-0.533l0.325-0.545l0.953,4.617
		c0.104,0.504,0.545,0.755,1.058,0.755c0.004,0,0.008,0,0.012,0c0.518,0,0.959-0.268,1.05-0.779l1.124-6.109l1.01,5.814
		c0.084,0.479,0.479,0.846,0.963,0.891c0.49,0.045,0.94-0.233,1.112-0.689l1.296-3.421h4.437v7.067c0,0.943-0.765,1.709-1.708,1.709
		H8.534L8.534,29.854z"/>
</g>
</svg>