<?xml version="1.0" encoding="iso-8859-1"?>
<!-- Uploaded to: SVG Repo, www.svgrepo.com, Generator: SVG Repo Mixer Tools -->
<svg fill="#000000" height="800px" width="800px" version="1.1" id="Layer_1" xmlns="http://www.w3.org/2000/svg" xmlns:xlink="http://www.w3.org/1999/xlink" 
	 viewBox="0 0 490.281 490.281" xml:space="preserve">
<g>
	<g>
		<path d="M451.034,46.9c-26.1-30.2-61.5-46.9-99-46.9c-71.1,0-107.4,56.3-107.4,56.3S209.534,0,138.334,0c-37.5,0-73,16.7-99,46.9
			c-52.2,60.5-52.2,157.4-0.1,217.9l188.7,216.9c9.6,15,28.7,7,32.3,1l190.8-217.9C503.134,204.3,503.134,107.4,451.034,46.9z
			 M418.734,237.7l-174.1,200.1l-174.1-200.1c-39.6-45.9-39.6-119.9,0-164.7c17.7-20.9,42.7-32.3,67.8-32.3c25,0,49,11.5,66.7,32.3
			l21.9,25c13.7,15.8,28.8,6.3,32.3,2.1l24-27.1c17.7-20.9,42.7-32.3,67.8-32.3s49,11.5,67.8,32.3
			C458.334,118.8,458.334,192.8,418.734,237.7z"/>
		<path d="M315.834,224.3h-55.7v-55.7c0-8.3-6.8-15.1-15.1-15.1s-15.1,6.8-15.1,15.1v55.7h-55.7c-8.3,0-15.1,6.8-15.1,15.1
			s6.8,15.1,15.1,15.1h55.7v55.6c0,8.3,6.8,15.1,15.1,15.1s15.1-6.8,15.1-15.1v-55.7h55.7c8.3,0,15.1-6.8,15.1-15.1
			S324.234,224.3,315.834,224.3z"/>
	</g>
</g>
</svg>